<?xml version="1.0" standalone="no"?>
<!DOCTYPE svg PUBLIC "-//W3C//DTD SVG 20010904//EN"
 "http://www.w3.org/TR/2001/REC-SVG-20010904/DTD/svg10.dtd">
<svg version="1.0" xmlns="http://www.w3.org/2000/svg"
 width="1076.000000pt" height="1076.000000pt" viewBox="0 0 1076.000000 1076.000000"
 preserveAspectRatio="xMidYMid meet">
<metadata>
Created by potrace 1.11, written by Peter Selinger 2001-2013
</metadata>
<g transform="translate(0.000000,1076.000000) scale(0.100000,-0.100000)"
fill="#000000" stroke="none">
<path d="M714 10740 c-202 -53 -352 -191 -422 -389 l-27 -76 0 -3995 c0 -2197
3 -4013 7 -4035 9 -50 29 -109 58 -165 29 -57 33 -62 117 -146 51 -51 93 -83
145 -108 116 -57 159 -63 477 -64 156 0 285 -3 288 -6 3 -3 6 -170 8 -373 3
-424 2 -420 92 -587 32 -60 155 -169 233 -208 129 -64 152 -66 543 -68 259 0
355 -4 366 -13 10 -8 13 -8 8 -1 -5 9 903 12 3646 13 2008 0 3677 2 3707 5
230 21 434 187 513 416 l22 65 3 3983 c2 4415 8 4054 -64 4202 -45 92 -159
209 -249 257 -120 63 -168 70 -489 71 -159 1 -291 3 -294 6 -2 3 -6 171 -7
373 -3 425 -2 416 -92 588 -31 59 -154 168 -233 207 -151 74 253 68 -4240 67
-3919 0 -4047 -1 -4116 -19z"/>
<path d="M5829 483 c-13 -16 -12 -17 4 -4 9 7 17 15 17 17 0 8 -8 3 -21 -13z"/>
</g>
</svg>
